<svg id="Capa_1" data-name="Capa 1" xmlns="http://www.w3.org/2000/svg" viewBox="0 0 571 257.99"><defs><style>.cls-1{fill:blue;}.cls-2,.cls-3{fill:none;stroke-miterlimit:10;}.cls-2{stroke:#000;}.cls-3{stroke:#603813;}.cls-4{fill:#c1272d;}</style></defs><title>arbol-html</title><path class="cls-1" d="M233.16,65h1.39v4.8h0a2.57,2.57,0,0,1,1-1,2.83,2.83,0,0,1,1.42-.4c1,0,2.69.64,2.69,3.29v4.57h-1.4V71.82c0-1.24-.46-2.29-1.78-2.29a2,2,0,0,0-1.87,1.4,1.69,1.69,0,0,0-.1.67v4.63h-1.39Z"/><path class="cls-1" d="M243.58,66.34v2.21h2v1.06h-2v4.14c0,1,.27,1.5,1,1.5a3,3,0,0,0,.81-.1l.06,1a3.46,3.46,0,0,1-1.24.19,1.92,1.92,0,0,1-1.5-.59,2.82,2.82,0,0,1-.54-2V69.61H241V68.55h1.19V66.71Z"/><path class="cls-1" d="M247.15,70.63c0-.8,0-1.45-.06-2.08h1.22l.06,1.24h0a2.65,2.65,0,0,1,2.41-1.42A2.29,2.29,0,0,1,253,69.91h0a3.28,3.28,0,0,1,.86-1,2.59,2.59,0,0,1,1.69-.54c1,0,2.53.67,2.53,3.34v4.52h-1.37V71.88c0-1.47-.54-2.36-1.67-2.36a1.8,1.8,0,0,0-1.65,1.27,2.38,2.38,0,0,0-.11.69v4.75H252v-4.6c0-1.22-.54-2.11-1.6-2.11a1.89,1.89,0,0,0-1.73,1.39,2,2,0,0,0-.11.69v4.63h-1.37Z"/><path class="cls-1" d="M260.38,65h1.4V76.23h-1.4Z"/><path class="cls-1" d="M114.16,119h1.39v4.8h0a2.57,2.57,0,0,1,1-1,2.82,2.82,0,0,1,1.42-.39c1,0,2.69.63,2.69,3.28v4.57h-1.4v-4.41c0-1.24-.46-2.29-1.78-2.29a2,2,0,0,0-1.87,1.4,1.69,1.69,0,0,0-.1.67v4.63h-1.39Z"/><path class="cls-1" d="M123.74,126.64a2.46,2.46,0,0,0,2.64,2.67,5,5,0,0,0,2.12-.4l.24,1a6.22,6.22,0,0,1-2.55.48,3.57,3.57,0,0,1-3.78-3.87c0-2.32,1.36-4.14,3.6-4.14,2.51,0,3.17,2.2,3.17,3.61,0,.29,0,.51,0,.65Zm4.1-1a2,2,0,0,0-1.94-2.27,2.32,2.32,0,0,0-2.14,2.27Z"/><path class="cls-1" d="M135.17,130.23l-.12-1h0a2.85,2.85,0,0,1-2.35,1.14,2.18,2.18,0,0,1-2.35-2.2c0-1.86,1.65-2.87,4.62-2.86v-.16a1.58,1.58,0,0,0-1.75-1.77,3.83,3.83,0,0,0-2,.57l-.32-.92a4.73,4.73,0,0,1,2.53-.68c2.35,0,2.92,1.6,2.92,3.14v2.87a11.36,11.36,0,0,0,.12,1.84Zm-.21-3.92c-1.52,0-3.25.24-3.25,1.73a1.23,1.23,0,0,0,1.31,1.33,1.91,1.91,0,0,0,1.86-1.28,1.42,1.42,0,0,0,.08-.45Z"/><path class="cls-1" d="M145.19,119v9.29c0,.68,0,1.46.07,2H144l-.06-1.33h0a2.86,2.86,0,0,1-2.62,1.5c-1.86,0-3.29-1.57-3.29-3.9,0-2.55,1.58-4.12,3.45-4.12a2.55,2.55,0,0,1,2.31,1.17h0V119Zm-1.39,6.72a2.32,2.32,0,0,0-.07-.59,2,2,0,0,0-2-1.62c-1.45,0-2.3,1.27-2.3,3s.76,2.84,2.27,2.84a2.09,2.09,0,0,0,2-1.67,2.3,2.3,0,0,0,.07-.6Z"/><path class="cls-1" d="M383.09,126.23c0-.52.07-1.3.07-2V115h1.38v4.83h0a2.85,2.85,0,0,1,2.62-1.41c1.9,0,3.25,1.58,3.24,3.91,0,2.75-1.73,4.11-3.45,4.11a2.72,2.72,0,0,1-2.57-1.44h-.05l-.06,1.27Zm1.45-3.08a2.74,2.74,0,0,0,.06.51,2.15,2.15,0,0,0,2.1,1.63c1.46,0,2.33-1.19,2.33-3,0-1.54-.79-2.85-2.28-2.85a2.22,2.22,0,0,0-2.13,1.71,2.89,2.89,0,0,0-.08.57Z"/><path class="cls-1" d="M399.14,122.33a3.75,3.75,0,0,1-3.83,4.07,3.65,3.65,0,0,1-3.68-4,3.74,3.74,0,0,1,3.81-4.07A3.64,3.64,0,0,1,399.14,122.33Zm-6.1.08c0,1.68,1,3,2.34,3s2.33-1.26,2.33-3c0-1.3-.65-3-2.3-3S393,121,393,122.41Z"/><path class="cls-1" d="M407.53,115v9.29c0,.68,0,1.46.06,2h-1.25l-.06-1.33h0a2.83,2.83,0,0,1-2.61,1.5c-1.86,0-3.29-1.57-3.29-3.9,0-2.55,1.57-4.12,3.44-4.12a2.56,2.56,0,0,1,2.32,1.17h0V115Zm-1.4,6.72a2.32,2.32,0,0,0-.06-.59,2.06,2.06,0,0,0-2-1.62c-1.44,0-2.3,1.27-2.3,3,0,1.55.76,2.84,2.27,2.84a2.1,2.1,0,0,0,2.05-1.67,2.31,2.31,0,0,0,.06-.6Z"/><path class="cls-1" d="M410.35,118.55l1.68,4.54c.18.51.37,1.11.5,1.57h0c.14-.46.3-1,.49-1.6l1.52-4.51h1.48L414,124c-1,2.64-1.69,4-2.64,4.81a3.78,3.78,0,0,1-1.71.91l-.35-1.18a3.61,3.61,0,0,0,1.22-.68,4.16,4.16,0,0,0,1.17-1.55.92.92,0,0,0,.11-.34,1.22,1.22,0,0,0-.09-.36l-2.84-7.08Z"/><path class="cls-1" d="M33.16,169.82c0-.79,0-1.44-.07-2.08h1.23l.06,1.24h0a2.64,2.64,0,0,1,2.41-1.41A2.25,2.25,0,0,1,39,169.11h0a3.15,3.15,0,0,1,.85-1,2.62,2.62,0,0,1,1.7-.54c1,0,2.52.67,2.52,3.33v4.52H42.76v-4.34c0-1.48-.54-2.37-1.67-2.37A1.82,1.82,0,0,0,39.44,170a2.45,2.45,0,0,0-.11.7v4.74H38v-4.6c0-1.22-.54-2.11-1.61-2.11a1.92,1.92,0,0,0-1.73,1.4,1.87,1.87,0,0,0-.11.68v4.63H33.16Z"/><path class="cls-1" d="M47.17,171.84a2.45,2.45,0,0,0,2.63,2.66,5.1,5.1,0,0,0,2.13-.39l.24,1a6.35,6.35,0,0,1-2.56.47,3.57,3.57,0,0,1-3.78-3.87c0-2.32,1.37-4.14,3.61-4.14,2.5,0,3.17,2.2,3.17,3.62a4.51,4.51,0,0,1,0,.65Zm4.09-1a2,2,0,0,0-1.93-2.27,2.31,2.31,0,0,0-2.15,2.27Z"/><path class="cls-1" d="M56,165.54v2.2h2v1.07H56V173c0,1,.27,1.49,1,1.49a3,3,0,0,0,.81-.1l.06,1a3.46,3.46,0,0,1-1.24.19,1.91,1.91,0,0,1-1.5-.58,2.85,2.85,0,0,1-.54-2v-4.19H53.47v-1.07h1.19V165.9Z"/><path class="cls-1" d="M63.84,175.42l-.11-1h0a2.84,2.84,0,0,1-2.34,1.14A2.19,2.19,0,0,1,59,173.39c0-1.85,1.65-2.87,4.62-2.85v-.16a1.59,1.59,0,0,0-1.75-1.78,3.83,3.83,0,0,0-2,.57l-.32-.92a4.82,4.82,0,0,1,2.53-.68c2.35,0,2.92,1.6,2.92,3.14v2.87a11.36,11.36,0,0,0,.12,1.84Zm-.2-3.91c-1.53,0-3.26.23-3.26,1.72a1.24,1.24,0,0,0,1.32,1.34,1.92,1.92,0,0,0,1.86-1.29,1.36,1.36,0,0,0,.08-.44Z"/><path class="cls-1" d="M94.84,165.89v2.21h2v1.06h-2v4.14c0,.95.27,1.49,1,1.49a3.12,3.12,0,0,0,.81-.09l.06,1.05a3.46,3.46,0,0,1-1.24.19,1.92,1.92,0,0,1-1.5-.59,2.83,2.83,0,0,1-.54-2v-4.19H92.29V168.1h1.19v-1.84Z"/><path class="cls-1" d="M100,165.94a.86.86,0,1,1-1.72,0,.85.85,0,0,1,.87-.87A.82.82,0,0,1,100,165.94Zm-1.55,9.84V168.1h1.4v7.68Z"/><path class="cls-1" d="M103.8,165.89v2.21h2v1.06h-2v4.14c0,.95.27,1.49,1,1.49a3,3,0,0,0,.81-.09l.06,1.05a3.36,3.36,0,0,1-1.23.19,1.94,1.94,0,0,1-1.51-.59,2.83,2.83,0,0,1-.54-2v-4.19h-1.19V168.1h1.19v-1.84Z"/><path class="cls-1" d="M107.37,164.51h1.4v11.27h-1.4Z"/><path class="cls-1" d="M111.9,172.19a2.46,2.46,0,0,0,2.63,2.67,5.12,5.12,0,0,0,2.13-.4l.23,1a6.22,6.22,0,0,1-2.55.48,3.57,3.57,0,0,1-3.78-3.88c0-2.31,1.37-4.14,3.61-4.14,2.5,0,3.17,2.21,3.17,3.62a4.38,4.38,0,0,1,0,.65Zm4.09-1a2,2,0,0,0-1.94-2.27,2.31,2.31,0,0,0-2.14,2.27Z"/><path class="cls-1" d="M146.16,164.69h1.39V176h-1.39Z"/><path class="cls-1" d="M151.46,166.11a.87.87,0,0,1-1.73,0,.85.85,0,0,1,.87-.87A.83.83,0,0,1,151.46,166.11ZM149.9,176v-7.68h1.4V176Z"/><path class="cls-1" d="M153.62,170.35c0-.79,0-1.44-.07-2.08h1.24l.08,1.27h0a2.82,2.82,0,0,1,2.54-1.44c1.06,0,2.71.63,2.71,3.27V176h-1.39v-4.42c0-1.24-.46-2.27-1.78-2.27a2,2,0,0,0-1.87,1.42,1.91,1.91,0,0,0-.1.66V176h-1.39Z"/><path class="cls-1" d="M163.8,171.8h0c.19-.27.46-.61.68-.88l2.26-2.65h1.68l-3,3.16,3.38,4.52h-1.69l-2.66-3.68-.71.8V176h-1.38V164.69h1.38Z"/><path class="cls-1" d="M193,175.17a3.64,3.64,0,0,0,1.84.56c1,0,1.49-.51,1.49-1.14s-.4-1-1.43-1.42c-1.38-.49-2-1.25-2-2.17a2.37,2.37,0,0,1,2.65-2.25,3.88,3.88,0,0,1,1.89.47l-.35,1a3,3,0,0,0-1.57-.45c-.83,0-1.29.48-1.29,1.05s.46.92,1.46,1.3c1.34.51,2,1.18,2,2.32,0,1.35-1.05,2.3-2.87,2.3a4.47,4.47,0,0,1-2.16-.52Z"/><path class="cls-1" d="M204.92,176.32a5.21,5.21,0,0,1-2.21.44,3.64,3.64,0,0,1-3.82-3.92,3.9,3.9,0,0,1,4.12-4.08,4.67,4.67,0,0,1,1.94.4l-.32,1.08a3.24,3.24,0,0,0-1.62-.37,2.9,2.9,0,0,0,0,5.78,4.06,4.06,0,0,0,1.72-.38Z"/><path class="cls-1" d="M206.55,171.32c0-.91,0-1.69-.06-2.4h1.22l0,1.51h.07a2.31,2.31,0,0,1,2.13-1.68,1.61,1.61,0,0,1,.39,0v1.32a2.12,2.12,0,0,0-.47-.05,2,2,0,0,0-1.88,1.8,4.12,4.12,0,0,0-.06.65v4.09h-1.38Z"/><path class="cls-1" d="M213.36,166.76a.87.87,0,0,1-1.73,0,.85.85,0,0,1,.87-.87A.83.83,0,0,1,213.36,166.76Zm-1.56,9.84v-7.68h1.4v7.68Z"/><path class="cls-1" d="M215.51,171.43c0-1,0-1.78-.06-2.51h1.25l.07,1.32h0a3,3,0,0,1,2.73-1.49c1.85,0,3.25,1.57,3.25,3.9,0,2.76-1.68,4.13-3.49,4.13a2.69,2.69,0,0,1-2.36-1.21h0v4.17h-1.38Zm1.38,2a3.41,3.41,0,0,0,.07.58,2.15,2.15,0,0,0,2.09,1.63c1.48,0,2.33-1.21,2.33-3,0-1.54-.8-2.85-2.28-2.85a2.23,2.23,0,0,0-2.11,1.73,2.13,2.13,0,0,0-.1.57Z"/><path class="cls-1" d="M226.22,166.71v2.21h2V170h-2v4.15c0,1,.27,1.49,1.05,1.49a3,3,0,0,0,.81-.1l.06,1a3.46,3.46,0,0,1-1.24.19,1.92,1.92,0,0,1-1.5-.59,2.82,2.82,0,0,1-.54-2V170h-1.19v-1.06h1.19v-1.84Z"/><path class="cls-1" d="M262.16,165h1.39v4.79h0a2.55,2.55,0,0,1,1-1,2.83,2.83,0,0,1,1.42-.4c1,0,2.69.64,2.69,3.29v4.57h-1.4v-4.42c0-1.23-.46-2.28-1.78-2.28a2,2,0,0,0-1.87,1.4,1.64,1.64,0,0,0-.1.66v4.64h-1.39Z"/><path class="cls-1" d="M271.74,172.72a2.46,2.46,0,0,0,2.64,2.67,5,5,0,0,0,2.12-.4l.24,1a6.25,6.25,0,0,1-2.55.47,3.56,3.56,0,0,1-3.78-3.87c0-2.31,1.36-4.14,3.6-4.14,2.51,0,3.17,2.21,3.17,3.62,0,.28,0,.51,0,.65Zm4.1-1a2,2,0,0,0-1.94-2.27,2.31,2.31,0,0,0-2.14,2.27Z"/><path class="cls-1" d="M283.17,176.31l-.12-1h0a2.88,2.88,0,0,1-2.35,1.14,2.18,2.18,0,0,1-2.35-2.2c0-1.86,1.65-2.88,4.62-2.86v-.16a1.59,1.59,0,0,0-1.75-1.78,3.93,3.93,0,0,0-2,.57l-.32-.92a4.82,4.82,0,0,1,2.53-.68c2.35,0,2.92,1.6,2.92,3.14v2.88a11.52,11.52,0,0,0,.12,1.84Zm-.21-3.92c-1.52,0-3.25.24-3.25,1.73a1.23,1.23,0,0,0,1.31,1.33,1.92,1.92,0,0,0,1.86-1.29,1.36,1.36,0,0,0,.08-.44Z"/><path class="cls-1" d="M293.19,165v9.28c0,.69,0,1.46.07,2H292l-.06-1.34h0a2.85,2.85,0,0,1-2.62,1.51c-1.86,0-3.29-1.57-3.29-3.9,0-2.56,1.58-4.13,3.45-4.13a2.55,2.55,0,0,1,2.31,1.18h0V165Zm-1.39,6.71a2.3,2.3,0,0,0-.07-.58,2,2,0,0,0-2-1.62c-1.45,0-2.3,1.27-2.3,3s.76,2.84,2.27,2.84a2.09,2.09,0,0,0,2-1.66,2.3,2.3,0,0,0,.07-.6Z"/><path class="cls-1" d="M296.29,172.72a2.46,2.46,0,0,0,2.63,2.67,5.12,5.12,0,0,0,2.13-.4l.23,1a6.25,6.25,0,0,1-2.55.47,3.56,3.56,0,0,1-3.78-3.87c0-2.31,1.37-4.14,3.6-4.14,2.51,0,3.18,2.21,3.18,3.62a4.51,4.51,0,0,1-.05.65Zm4.09-1a2,2,0,0,0-1.94-2.27,2.31,2.31,0,0,0-2.14,2.27Z"/><path class="cls-1" d="M303.46,171c0-.9,0-1.68-.07-2.39h1.22l.05,1.5h.07a2.3,2.3,0,0,1,2.12-1.68,1.62,1.62,0,0,1,.4.05v1.32a1.73,1.73,0,0,0-.48,0,2,2,0,0,0-1.87,1.79,4.12,4.12,0,0,0-.06.65v4.1h-1.38Z"/><path class="cls-1" d="M334.16,170.53c0-.79,0-1.44-.07-2.08h1.24l.08,1.27h0a2.82,2.82,0,0,1,2.54-1.44c1.07,0,2.72.63,2.72,3.27v4.58h-1.4V171.7c0-1.23-.46-2.27-1.78-2.27a2,2,0,0,0-1.87,1.43,2.11,2.11,0,0,0-.1.65v4.62h-1.39Z"/><path class="cls-1" d="M347.22,176.13l-.11-1h-.05a2.86,2.86,0,0,1-2.35,1.15,2.19,2.19,0,0,1-2.35-2.21c0-1.86,1.65-2.87,4.62-2.86v-.16a1.58,1.58,0,0,0-1.75-1.77,3.83,3.83,0,0,0-2,.57l-.31-.92a4.76,4.76,0,0,1,2.52-.68c2.35,0,2.92,1.6,2.92,3.14v2.87a10.27,10.27,0,0,0,.13,1.84Zm-.21-3.92c-1.52,0-3.25.24-3.25,1.73a1.23,1.23,0,0,0,1.31,1.33,1.91,1.91,0,0,0,1.86-1.28,1.38,1.38,0,0,0,.08-.45Z"/><path class="cls-1" d="M351,168.45l1.51,4.32a18.23,18.23,0,0,1,.62,2h.05c.17-.63.39-1.27.65-2l1.49-4.32h1.46l-3,7.68h-1.33l-2.92-7.68Z"/><path class="cls-1" d="M384.16,170.29c0-.79,0-1.44-.07-2.08h1.23l.06,1.24h.05a2.64,2.64,0,0,1,2.41-1.41,2.25,2.25,0,0,1,2.17,1.54h0a3.15,3.15,0,0,1,.85-1,2.62,2.62,0,0,1,1.7-.54c1,0,2.52.67,2.52,3.33v4.53h-1.36v-4.35c0-1.48-.54-2.37-1.67-2.37a1.82,1.82,0,0,0-1.65,1.27,2.45,2.45,0,0,0-.11.7v4.75H389v-4.61c0-1.22-.54-2.11-1.61-2.11a2.08,2.08,0,0,0-1.84,2.08v4.64h-1.36Z"/><path class="cls-1" d="M401.64,175.9l-.11-1h0a2.84,2.84,0,0,1-2.34,1.14,2.19,2.19,0,0,1-2.35-2.21c0-1.85,1.65-2.87,4.62-2.85v-.16a1.59,1.59,0,0,0-1.75-1.78,3.83,3.83,0,0,0-2,.57l-.32-.92a4.82,4.82,0,0,1,2.53-.68c2.34,0,2.92,1.6,2.92,3.14v2.87a11.57,11.57,0,0,0,.12,1.85Zm-.2-3.92c-1.53,0-3.26.23-3.26,1.73A1.24,1.24,0,0,0,399.5,175a1.92,1.92,0,0,0,1.86-1.29,1.36,1.36,0,0,0,.08-.44Z"/><path class="cls-1" d="M406.59,166.06a.82.82,0,0,1-.89.85.83.83,0,0,1-.84-.85.86.86,0,0,1,.88-.88A.83.83,0,0,1,406.59,166.06ZM405,175.9v-7.69h1.39v7.69Z"/><path class="cls-1" d="M408.75,170.29c0-.79,0-1.44-.06-2.08h1.23l.08,1.27h0a2.8,2.8,0,0,1,2.53-1.44c1.07,0,2.72.63,2.72,3.27v4.59h-1.4v-4.43c0-1.24-.46-2.27-1.78-2.27a2,2,0,0,0-1.87,1.43,2.08,2.08,0,0,0-.09.65v4.62h-1.4Z"/><path class="cls-1" d="M444.41,176.07l-.11-1h-.05a2.84,2.84,0,0,1-2.35,1.15,2.19,2.19,0,0,1-2.34-2.21c0-1.86,1.65-2.87,4.61-2.86V171a1.58,1.58,0,0,0-1.74-1.77,3.81,3.81,0,0,0-2,.57l-.32-.92a4.81,4.81,0,0,1,2.52-.68c2.35,0,2.92,1.6,2.92,3.14v2.87a11.28,11.28,0,0,0,.13,1.84Zm-.2-3.92c-1.53,0-3.26.24-3.26,1.73a1.23,1.23,0,0,0,1.32,1.33,1.92,1.92,0,0,0,1.86-1.28,1.7,1.7,0,0,0,.08-.45Z"/><path class="cls-1" d="M447.62,174.64a3.64,3.64,0,0,0,1.84.56c1,0,1.49-.51,1.49-1.14s-.4-1-1.43-1.42c-1.38-.49-2-1.25-2-2.17a2.37,2.37,0,0,1,2.65-2.25,3.88,3.88,0,0,1,1.89.47l-.35,1a3,3,0,0,0-1.57-.45c-.83,0-1.29.48-1.29,1.05s.46.92,1.46,1.3c1.33.51,2,1.18,2,2.32,0,1.35-1.05,2.3-2.88,2.3a4.43,4.43,0,0,1-2.15-.52Z"/><path class="cls-1" d="M455.64,166.23a.82.82,0,0,1-.89.86.83.83,0,0,1-.84-.86.85.85,0,0,1,.88-.87A.82.82,0,0,1,455.64,166.23Zm-1.55,9.84v-7.68h1.39v7.68Z"/><path class="cls-1" d="M464.43,164.8v9.29c0,.68,0,1.46.07,2h-1.26l-.06-1.33h0a2.86,2.86,0,0,1-2.62,1.51c-1.86,0-3.28-1.58-3.28-3.91,0-2.55,1.57-4.12,3.44-4.12a2.58,2.58,0,0,1,2.32,1.17h0V164.8ZM463,171.52a2.32,2.32,0,0,0-.07-.59,2,2,0,0,0-2-1.62c-1.45,0-2.3,1.27-2.3,3s.76,2.84,2.27,2.84a2.09,2.09,0,0,0,2-1.67,2.3,2.3,0,0,0,.07-.6Z"/><path class="cls-1" d="M467.53,172.48a2.46,2.46,0,0,0,2.63,2.67,5,5,0,0,0,2.13-.4l.24,1a6.14,6.14,0,0,1-2.56.48,3.57,3.57,0,0,1-3.78-3.87c0-2.32,1.37-4.14,3.61-4.14,2.5,0,3.17,2.2,3.17,3.61a4.38,4.38,0,0,1-.05.65Zm4.09-1a2,2,0,0,0-1.94-2.26,2.31,2.31,0,0,0-2.14,2.26Z"/><path class="cls-1" d="M496.3,176.25v-6.62h-1.08v-1.06h1.08v-.37a3.62,3.62,0,0,1,.89-2.68,2.65,2.65,0,0,1,1.87-.71,3.27,3.27,0,0,1,1.19.22l-.19,1.08a2,2,0,0,0-.89-.18c-1.19,0-1.49,1-1.49,2.23v.41h1.86v1.06h-1.86v6.62Z"/><path class="cls-1" d="M507.54,172.34a3.76,3.76,0,0,1-3.83,4.08,3.65,3.65,0,0,1-3.68-3.95,3.75,3.75,0,0,1,3.81-4.08A3.65,3.65,0,0,1,507.54,172.34Zm-6.1.08c0,1.69,1,3,2.34,3s2.33-1.26,2.33-3c0-1.3-.65-2.95-2.3-2.95S501.44,171,501.44,172.42Z"/><path class="cls-1" d="M516.25,172.34a3.76,3.76,0,0,1-3.83,4.08,3.65,3.65,0,0,1-3.68-3.95,3.75,3.75,0,0,1,3.81-4.08A3.65,3.65,0,0,1,516.25,172.34Zm-6.1.08c0,1.69,1,3,2.34,3s2.33-1.26,2.33-3c0-1.3-.65-2.95-2.3-2.95S510.15,171,510.15,172.42Z"/><path class="cls-1" d="M519.69,166.36v2.21h2v1.06h-2v4.14c0,.95.27,1.49,1,1.49a3,3,0,0,0,.8-.09l.07,1.05a3.46,3.46,0,0,1-1.24.19,2,2,0,0,1-1.51-.59,2.88,2.88,0,0,1-.54-2v-4.19h-1.19v-1.06h1.19v-1.84Z"/><path class="cls-1" d="M523.94,172.66a2.46,2.46,0,0,0,2.63,2.67,5.08,5.08,0,0,0,2.13-.4l.24,1a6.23,6.23,0,0,1-2.56.48,3.57,3.57,0,0,1-3.77-3.87c0-2.32,1.36-4.15,3.6-4.15,2.51,0,3.17,2.21,3.17,3.62,0,.29,0,.51,0,.65Zm4.09-1a2,2,0,0,0-1.93-2.27,2.31,2.31,0,0,0-2.14,2.27Z"/><path class="cls-1" d="M531.11,171c0-.9,0-1.68-.06-2.39h1.22l.05,1.51h.06a2.3,2.3,0,0,1,2.13-1.69,1.48,1.48,0,0,1,.39.05v1.32a2.12,2.12,0,0,0-.47,0,2,2,0,0,0-1.88,1.79,4.23,4.23,0,0,0-.06.65v4.1h-1.38Z"/><path class="cls-1" d="M345,219.05a3.64,3.64,0,0,0,1.84.55c1,0,1.49-.51,1.49-1.14s-.4-1-1.43-1.41c-1.38-.5-2-1.26-2-2.18a2.37,2.37,0,0,1,2.65-2.25,3.88,3.88,0,0,1,1.89.47l-.35,1a3,3,0,0,0-1.57-.44c-.83,0-1.29.47-1.29,1s.46.92,1.46,1.3c1.34.51,2,1.18,2,2.32,0,1.35-1,2.3-2.87,2.3a4.36,4.36,0,0,1-2.16-.52Z"/><path class="cls-1" d="M352.22,216.89a2.45,2.45,0,0,0,2.63,2.66,5.1,5.1,0,0,0,2.13-.39l.24,1a6.31,6.31,0,0,1-2.56.47,3.56,3.56,0,0,1-3.77-3.87c0-2.32,1.36-4.14,3.6-4.14,2.51,0,3.17,2.2,3.17,3.62a4.51,4.51,0,0,1-.05.65Zm4.09-1a2,2,0,0,0-1.93-2.27,2.32,2.32,0,0,0-2.15,2.27Z"/><path class="cls-1" d="M361.07,210.59v2.2h2v1.07h-2V218c0,.95.27,1.49,1.05,1.49a3,3,0,0,0,.81-.1l.06,1.05a3.46,3.46,0,0,1-1.24.19,1.91,1.91,0,0,1-1.5-.58,2.85,2.85,0,0,1-.54-2v-4.19h-1.19v-1.07h1.19V211Z"/><path class="cls-1" d="M366.2,210.63a.87.87,0,0,1-1.73,0,.85.85,0,0,1,.87-.87A.83.83,0,0,1,366.2,210.63Zm-1.56,9.84v-7.68H366v7.68Z"/><path class="cls-1" d="M375.3,216.57a3.75,3.75,0,0,1-3.82,4.08,3.65,3.65,0,0,1-3.68-4,3.75,3.75,0,0,1,3.81-4.08A3.63,3.63,0,0,1,375.3,216.57Zm-6.09.08c0,1.68,1,2.95,2.33,2.95s2.34-1.25,2.34-3c0-1.3-.65-3-2.3-3S369.21,215.19,369.21,216.65Z"/><path class="cls-1" d="M377.06,214.87c0-.79,0-1.44-.06-2.08h1.24l.08,1.27h0a2.82,2.82,0,0,1,2.54-1.44c1.06,0,2.71.63,2.71,3.27v4.58h-1.39v-4.42c0-1.24-.46-2.27-1.78-2.27a2,2,0,0,0-1.87,1.43,1.81,1.81,0,0,0-.1.65v4.61h-1.4Z"/><path class="cls-1" d="M421.41,220.47l-.11-1h-.05a2.87,2.87,0,0,1-2.35,1.14,2.19,2.19,0,0,1-2.34-2.21c0-1.85,1.65-2.87,4.61-2.85v-.16a1.58,1.58,0,0,0-1.74-1.78,3.81,3.81,0,0,0-2,.57l-.32-.92a4.81,4.81,0,0,1,2.52-.68c2.35,0,2.92,1.6,2.92,3.14v2.87a11.28,11.28,0,0,0,.13,1.84Zm-.2-3.92c-1.53,0-3.26.24-3.26,1.73a1.24,1.24,0,0,0,1.32,1.34,1.93,1.93,0,0,0,1.86-1.29,1.7,1.7,0,0,0,.08-.44Z"/><path class="cls-1" d="M424.81,215.19c0-.9,0-1.68-.07-2.4H426l.05,1.51h.07a2.29,2.29,0,0,1,2.12-1.68,1.25,1.25,0,0,1,.4,0V214a2.27,2.27,0,0,0-.48,0,2,2,0,0,0-1.87,1.79,4.12,4.12,0,0,0-.06.65v4.09h-1.38Z"/><path class="cls-1" d="M432.06,210.59v2.2h2v1.07h-2V218c0,.95.27,1.49,1,1.49a2.92,2.92,0,0,0,.81-.1l.07,1.05a3.46,3.46,0,0,1-1.24.19,1.94,1.94,0,0,1-1.51-.58,2.85,2.85,0,0,1-.54-2v-4.19H429.5v-1.07h1.19V211Z"/><path class="cls-1" d="M437.18,210.63a.82.82,0,0,1-.89.86.83.83,0,0,1-.84-.86.85.85,0,0,1,.87-.87A.83.83,0,0,1,437.18,210.63Zm-1.55,9.84v-7.68H437v7.68Z"/><path class="cls-1" d="M444.81,220.19a5.12,5.12,0,0,1-2.2.44,3.65,3.65,0,0,1-3.83-3.92,3.91,3.91,0,0,1,4.13-4.08,4.65,4.65,0,0,1,1.93.4l-.31,1.08a3.28,3.28,0,0,0-1.62-.36,2.66,2.66,0,0,0-2.72,2.9,2.63,2.63,0,0,0,2.67,2.87,3.86,3.86,0,0,0,1.71-.38Z"/><path class="cls-1" d="M446.45,209.21h1.39v11.26h-1.39Z"/><path class="cls-1" d="M451,216.89a2.45,2.45,0,0,0,2.63,2.66,5.14,5.14,0,0,0,2.13-.39l.24,1a6.35,6.35,0,0,1-2.56.47,3.57,3.57,0,0,1-3.78-3.87c0-2.32,1.37-4.14,3.61-4.14,2.5,0,3.17,2.2,3.17,3.62a4.51,4.51,0,0,1-.05.65Zm4.09-1a2,2,0,0,0-1.93-2.27,2.31,2.31,0,0,0-2.15,2.27Z"/><rect class="cls-2" x="220.5" y="61.23" width="55" height="21" rx="10.5"/><rect class="cls-2" x="103.5" y="115.23" width="55" height="21" rx="10.5"/><rect class="cls-2" x="370.5" y="110.23" width="55" height="21" rx="10.5"/><rect class="cls-2" x="24.5" y="161.73" width="49" height="21" rx="10.5"/><rect class="cls-2" x="83.12" y="161.73" width="44" height="21" rx="10.5"/><rect class="cls-2" x="134.75" y="161.73" width="44" height="21" rx="10.5"/><rect class="cls-2" x="186.37" y="161.73" width="49" height="21" rx="10.5"/><rect class="cls-2" x="373.25" y="161.73" width="49" height="21" rx="10.5"/><rect class="cls-2" x="322.62" y="161.73" width="44" height="21" rx="10.5"/><rect class="cls-2" x="255" y="161.73" width="59" height="21" rx="10.5"/><rect class="cls-2" x="489.5" y="161.73" width="59" height="21" rx="10.5"/><rect class="cls-2" x="431.87" y="161.73" width="49" height="21" rx="10.5"/><rect class="cls-2" x="407.5" y="205.98" width="59" height="21" rx="10.5"/><rect class="cls-2" x="335.5" y="205.98" width="59" height="21" rx="10.5"/><line class="cls-3" x1="398.5" y1="131.23" x2="398.5" y2="161.23"/><line class="cls-3" x1="344.5" y1="161.23" x2="398.5" y2="131.23"/><line class="cls-3" x1="455.5" y1="161.23" x2="398.5" y2="131.23"/><line class="cls-3" x1="286.5" y1="161.23" x2="398.5" y2="131.23"/><line class="cls-3" x1="518.5" y1="161.23" x2="398.5" y2="131.23"/><line class="cls-3" x1="46.5" y1="161.23" x2="128.5" y2="136.23"/><line class="cls-3" x1="128.5" y1="136.73" x2="105.5" y2="161.23"/><line class="cls-3" x1="210.5" y1="161.23" x2="127.5" y2="136.23"/><line class="cls-3" x1="158.5" y1="161.23" x2="128.5" y2="136.23"/><line class="cls-3" x1="367.5" y1="206.23" x2="400.5" y2="183.23"/><line class="cls-3" x1="435.5" y1="206.23" x2="398.5" y2="182.23"/><line class="cls-3" x1="131.5" y1="115.23" x2="247.5" y2="82.23"/><line class="cls-3" x1="397.5" y1="110.23" x2="247.5" y2="82.23"/><path class="cls-4" d="M190.16,27.32h-5.5v5.1h6.13V34h-8V19.8h7.64v1.54h-5.81v4.47h5.5Z"/><path class="cls-4" d="M192.85,32.07a4.88,4.88,0,0,0,2.43.73c1.35,0,2-.67,2-1.51s-.53-1.37-1.89-1.87c-1.83-.65-2.69-1.66-2.69-2.88,0-1.63,1.32-3,3.5-3a5.12,5.12,0,0,1,2.5.63l-.46,1.35a3.87,3.87,0,0,0-2.08-.59c-1.09,0-1.7.63-1.7,1.38s.61,1.22,1.93,1.72c1.77.68,2.67,1.56,2.67,3.07,0,1.78-1.39,3-3.8,3a5.84,5.84,0,0,1-2.86-.69Z"/><path class="cls-4" d="M203.64,20.87v2.92h2.65V25.2h-2.65v5.48c0,1.26.36,2,1.39,2a4.31,4.31,0,0,0,1.07-.12l.08,1.38a4.47,4.47,0,0,1-1.64.25,2.56,2.56,0,0,1-2-.77,3.75,3.75,0,0,1-.72-2.65V25.2h-1.57V23.79h1.57V21.36Z"/><path class="cls-4" d="M208.36,27c0-1.19,0-2.22-.08-3.17h1.62l.06,2H210a3.06,3.06,0,0,1,2.82-2.23,2.06,2.06,0,0,1,.52.06v1.75a2.88,2.88,0,0,0-.63-.07,2.59,2.59,0,0,0-2.47,2.38,4.37,4.37,0,0,0-.09.86V34h-1.83Z"/><path class="cls-4" d="M223.73,31.18c0,1,0,2,.09,2.77h-1.64l-.1-1.65H222a3.83,3.83,0,0,1-3.36,1.89c-1.59,0-3.5-.89-3.5-4.46V23.79H217v5.63c0,1.93.58,3.23,2.26,3.23A2.68,2.68,0,0,0,221.72,31a2.81,2.81,0,0,0,.17-.94V23.79h1.84Z"/><path class="cls-4" d="M234.05,33.58a6.92,6.92,0,0,1-2.92.58A4.82,4.82,0,0,1,226.07,29a5.17,5.17,0,0,1,5.46-5.4,6.22,6.22,0,0,1,2.56.53l-.42,1.43a4.2,4.2,0,0,0-2.14-.49,3.51,3.51,0,0,0-3.59,3.84,3.48,3.48,0,0,0,3.52,3.8,5.26,5.26,0,0,0,2.27-.5Z"/><path class="cls-4" d="M238.71,20.87v2.92h2.64V25.2h-2.64v5.48c0,1.26.36,2,1.38,2a4.4,4.4,0,0,0,1.08-.12l.08,1.38a4.47,4.47,0,0,1-1.64.25,2.56,2.56,0,0,1-2-.77,3.75,3.75,0,0,1-.72-2.65V25.2h-1.57V23.79h1.57V21.36Z"/><path class="cls-4" d="M251.94,31.18c0,1,0,2,.08,2.77h-1.64l-.1-1.65h0a3.86,3.86,0,0,1-3.36,1.89c-1.6,0-3.51-.89-3.51-4.46V23.79h1.85v5.63c0,1.93.59,3.23,2.27,3.23A2.66,2.66,0,0,0,249.92,31a2.58,2.58,0,0,0,.17-.94V23.79h1.85Z"/><path class="cls-4" d="M255,27c0-1.19,0-2.22-.08-3.17h1.62l.06,2h.08a3.06,3.06,0,0,1,2.82-2.23,2.06,2.06,0,0,1,.52.06v1.75a2.88,2.88,0,0,0-.63-.07,2.59,2.59,0,0,0-2.47,2.38,4.37,4.37,0,0,0-.09.86V34H255Z"/><path class="cls-4" d="M267.39,34l-.14-1.28h-.07a3.77,3.77,0,0,1-3.1,1.52A2.9,2.9,0,0,1,261,31.27c0-2.46,2.18-3.8,6.11-3.78v-.21a2.09,2.09,0,0,0-2.31-2.35,5.1,5.1,0,0,0-2.65.75l-.42-1.22a6.37,6.37,0,0,1,3.34-.9c3.11,0,3.87,2.12,3.87,4.16v3.8a14.93,14.93,0,0,0,.16,2.43Zm-.27-5.18c-2,0-4.3.31-4.3,2.29a1.63,1.63,0,0,0,1.74,1.76,2.54,2.54,0,0,0,2.46-1.7,2,2,0,0,0,.1-.59Z"/><path class="cls-4" d="M278.23,19.8v5.92h6.84V19.8h1.85V34h-1.85V27.32h-6.84V34H276.4V19.8Z"/><path class="cls-4" d="M292.78,21.36h-4.3V19.8H299v1.56h-4.33V34h-1.85Z"/><path class="cls-4" d="M312.46,27.74c-.11-2-.23-4.35-.21-6.11h-.06c-.49,1.66-1.08,3.42-1.79,5.38l-2.5,6.86h-1.38l-2.29-6.74c-.67-2-1.24-3.82-1.64-5.5h0c0,1.76-.15,4.14-.28,6.26L301.9,34h-1.75l1-14.15h2.33l2.42,6.85c.58,1.74,1.07,3.29,1.42,4.76h.07c.35-1.42.86-3,1.49-4.76l2.52-6.85h2.33L314.6,34h-1.79Z"/><path class="cls-4" d="M317.42,19.8h1.82V32.42h6.05V34h-7.87Z"/></svg>